<svg id="Layer_1" data-name="Layer 1" xmlns="http://www.w3.org/2000/svg" viewBox="0 0 449.12 532"><path d="M497.28,435.12c2.8-2.8,5.6-5,8.4-7.84a237.12,237.12,0,0,0,68.88-154.56c0-3.92-1.12-8.4-4.48-11.2a16.65,16.65,0,0,0-11.2-4.48,231.54,231.54,0,0,0-120.4,40.88v-7.84A299.83,299.83,0,0,0,361.2,89a15,15,0,0,0-22.4,0,299.83,299.83,0,0,0-77.28,201v7.84A236.63,236.63,0,0,0,141.12,257c-3.92,0-8.4,1.12-11.2,4.48a16.65,16.65,0,0,0-4.48,11.2,234.43,234.43,0,0,0,68.88,154.56c2.8,2.8,5.6,5,8.4,7.84a153.41,153.41,0,0,0-62.16,35.28,15,15,0,0,0,0,22.4,164.68,164.68,0,0,0,109.76,42c20.16,0,35.84-.56,52.64-6.72l-2.24,42.56a44.13,44.13,0,0,0,23,40.32,43.6,43.6,0,0,0,20.72,5c11.76,0,23-5,31.36-12.88a41.34,41.34,0,0,0,12.32-31.36l-.56-47.6c19,8.4,38.08,10.64,62.16,10.64a165.75,165.75,0,0,0,109.76-42,15,15,0,0,0,0-22.4,153.41,153.41,0,0,0-62.16-35.28Zm-47,69.44c-29.68,0-46.48-2.8-68.32-19a14.48,14.48,0,0,0-15.68-1.12,15.08,15.08,0,0,0-7.84,13.44l1.12,73.92a14.09,14.09,0,0,1-3.92,10.08,14.51,14.51,0,0,1-16.8,2.8c-4.48-2.8-7.84-7.84-7.28-12.88L334.88,504a15.75,15.75,0,0,0-7.28-13.44c-2.24-1.12-5-2.24-7.28-2.24a12.86,12.86,0,0,0-7.84,2.24C292.32,503.44,280,505.12,252,505.12a132.79,132.79,0,0,1-75.6-23.52,137.26,137.26,0,0,1,64.39-23c6.16-.56,11.77-5,12.88-11.2,1.68-6.16-.56-12.32-6.16-16.24A212.3,212.3,0,0,1,217.27,406c-31.92-31.92-52.64-73.36-58.23-117.6a201.61,201.61,0,0,1,112,53.2c4.48,4.48,11.2,5,16.8,2.24s8.4-9,7.84-15.12a299,299,0,0,1-2.8-38.64,270.76,270.76,0,0,1,58.23-168c38.08,47.6,58.24,107,58.24,168a299,299,0,0,1-2.8,38.64,14.28,14.28,0,0,0,7.84,15.12c5.6,2.8,12.32,2.24,16.8-2.24a205.21,205.21,0,0,1,112-53.2A206.41,206.41,0,0,1,485,406a212.78,212.78,0,0,1-30.23,25.2,15.18,15.18,0,0,0-6.16,16.24,14.88,14.88,0,0,0,12.88,11.2,137.08,137.08,0,0,1,64.39,23,138,138,0,0,1-75.59,23Z" transform="translate(-125.44 -84)" style="fill:#f97316"/></svg>
